<svg xmlns="http://www.w3.org/2000/svg" version="1.1" xmlns:xlink="http://www.w3.org/1999/xlink" viewBox="0 0 200 200"><rect width="200" height="200" fill="url('#gradient')"></rect><defs><linearGradient id="gradient" gradientTransform="rotate(284 0.5 0.5)"><stop offset="0%" stop-color="#78de28"></stop><stop offset="100%" stop-color="#d9e241"></stop></linearGradient></defs><g><g fill="#1b3855" transform="matrix(4.341520467836257,0,0,4.341520467836257,8.347218439453542,130.8675859724569)" stroke="#0e5278" stroke-width="0"><path d="M1.07-14.22L5.58-14.22L8.75-4.33L11.91-14.22L16.43-14.22L16.43 0L12.99 0L12.99-3.32L13.32-10.12L9.88 0L7.62 0L4.17-10.13L4.50-3.32L4.50 0L1.07 0L1.07-14.22ZM27.42-8.57L27.42-6.03L22.03-6.03L22.03-2.64L28.40-2.64L28.40 0L18.60 0L18.60-14.22L28.42-14.22L28.42-11.57L22.03-11.57L22.03-8.57L27.42-8.57ZM41.15-14.22L41.15-11.57L36.88-11.57L36.88 0L33.46 0L33.46-11.57L29.27-11.57L29.27-14.22L41.15-14.22Z"></path></g></g></svg>